<svg width="1921" height="11504" viewBox="0 0 1921 11504" fill="none" xmlns="http://www.w3.org/2000/svg">
<rect width="227" height="294" rx="1" fill="#060508"/>
<rect x="228" width="291" height="294" rx="1" fill="#060508"/>
<rect x="520" width="293" height="294" rx="1" fill="#060508"/>
<rect x="814" width="292" height="294" rx="1" fill="#060508"/>
<rect x="1107" width="293" height="294" rx="1" fill="#060508"/>
<rect x="1401" width="292" height="294" rx="1" fill="#060508"/>
<rect x="1694" width="227" height="294" rx="1" fill="#060508"/>
<rect y="295" width="227" height="294" rx="1" fill="#060508"/>
<rect x="228" y="295" width="291" height="294" rx="1" fill="#060508"/>
<rect x="520" y="295" width="293" height="294" rx="1" fill="#060508"/>
<rect x="814" y="295" width="292" height="294" rx="1" fill="#060508"/>
<rect x="1107" y="295" width="293" height="294" rx="1" fill="#060508"/>
<rect x="1401" y="295" width="292" height="294" rx="1" fill="#060508"/>
<rect x="1694" y="295" width="227" height="294" rx="1" fill="#060508"/>
<rect y="590" width="227" height="294" rx="1" fill="#060508"/>
<rect x="228" y="590" width="291" height="294" rx="1" fill="#060508"/>
<rect x="520" y="590" width="293" height="294" rx="1" fill="#060508"/>
<rect x="814" y="590" width="292" height="294" rx="1" fill="#060508"/>
<rect x="1107" y="590" width="293" height="294" rx="1" fill="#060508"/>
<rect x="1401" y="590" width="292" height="294" rx="1" fill="#060508"/>
<rect x="1694" y="590" width="227" height="294" rx="1" fill="#060508"/>
<rect y="885" width="227" height="294" rx="1" fill="#060508"/>
<rect x="228" y="885" width="291" height="294" rx="1" fill="#060508"/>
<rect x="520" y="885" width="293" height="294" rx="1" fill="#060508"/>
<rect x="814" y="885" width="292" height="294" rx="1" fill="#060508"/>
<rect x="1107" y="885" width="293" height="294" rx="1" fill="#060508"/>
<rect x="1401" y="885" width="292" height="294" rx="1" fill="#060508"/>
<rect x="1694" y="885" width="227" height="294" rx="1" fill="#060508"/>
<rect y="1180" width="227" height="294" rx="1" fill="#060508"/>
<rect x="228" y="1180" width="291" height="294" rx="1" fill="#060508"/>
<rect x="520" y="1180" width="293" height="294" rx="1" fill="#060508"/>
<rect x="814" y="1180" width="292" height="294" rx="1" fill="#060508"/>
<rect x="1107" y="1180" width="293" height="294" rx="1" fill="#060508"/>
<rect x="1401" y="1180" width="292" height="294" rx="1" fill="#060508"/>
<rect x="1694" y="1180" width="227" height="294" rx="1" fill="#060508"/>
<rect y="1475" width="227" height="294" rx="1" fill="#060508"/>
<rect x="228" y="1475" width="291" height="294" rx="1" fill="#060508"/>
<rect x="520" y="1475" width="293" height="294" rx="1" fill="#060508"/>
<rect x="814" y="1475" width="292" height="294" rx="1" fill="#060508"/>
<rect x="1107" y="1475" width="293" height="294" rx="1" fill="#060508"/>
<rect x="1401" y="1475" width="292" height="294" rx="1" fill="#060508"/>
<rect x="1694" y="1475" width="227" height="294" rx="1" fill="#060508"/>
<rect y="1770" width="227" height="294" rx="1" fill="#060508"/>
<rect x="228" y="1770" width="291" height="294" rx="1" fill="#060508"/>
<rect x="520" y="1770" width="293" height="294" rx="1" fill="#060508"/>
<rect x="814" y="1770" width="292" height="294" rx="1" fill="#060508"/>
<rect x="1107" y="1770" width="293" height="294" rx="1" fill="#060508"/>
<rect x="1401" y="1770" width="292" height="294" rx="1" fill="#060508"/>
<rect x="1694" y="1770" width="227" height="294" rx="1" fill="#060508"/>
<rect y="2065" width="227" height="294" rx="1" fill="#060508"/>
<rect x="228" y="2065" width="291" height="294" rx="1" fill="#060508"/>
<rect x="520" y="2065" width="293" height="294" rx="1" fill="#060508"/>
<rect x="814" y="2065" width="292" height="294" rx="1" fill="#060508"/>
<rect x="1107" y="2065" width="293" height="294" rx="1" fill="#060508"/>
<rect x="1401" y="2065" width="292" height="294" rx="1" fill="#060508"/>
<rect x="1694" y="2065" width="227" height="294" rx="1" fill="#060508"/>
<rect y="2360" width="227" height="294" rx="1" fill="#060508"/>
<rect x="228" y="2360" width="291" height="294" rx="1" fill="#060508"/>
<rect x="520" y="2360" width="293" height="294" rx="1" fill="#060508"/>
<rect x="814" y="2360" width="292" height="294" rx="1" fill="#060508"/>
<rect x="1107" y="2360" width="293" height="294" rx="1" fill="#060508"/>
<rect x="1401" y="2360" width="292" height="294" rx="1" fill="#060508"/>
<rect x="1694" y="2360" width="227" height="294" rx="1" fill="#060508"/>
<rect y="2655" width="227" height="294" rx="1" fill="#060508"/>
<rect x="228" y="2655" width="291" height="294" rx="1" fill="#060508"/>
<rect x="520" y="2655" width="293" height="294" rx="1" fill="#060508"/>
<rect x="814" y="2655" width="292" height="294" rx="1" fill="#060508"/>
<rect x="1107" y="2655" width="293" height="294" rx="1" fill="#060508"/>
<rect x="1401" y="2655" width="292" height="294" rx="1" fill="#060508"/>
<rect x="1694" y="2655" width="227" height="294" rx="1" fill="#060508"/>
<rect y="2950" width="227" height="294" rx="1" fill="#060508"/>
<rect x="228" y="2950" width="291" height="294" rx="1" fill="#060508"/>
<rect x="520" y="2950" width="293" height="294" rx="1" fill="#060508"/>
<rect x="814" y="2950" width="292" height="294" rx="1" fill="#060508"/>
<rect x="1107" y="2950" width="293" height="294" rx="1" fill="#060508"/>
<rect x="1401" y="2950" width="292" height="294" rx="1" fill="#060508"/>
<rect x="1694" y="2950" width="227" height="294" rx="1" fill="#060508"/>
<rect y="3245" width="227" height="294" rx="1" fill="#060508"/>
<rect x="228" y="3245" width="291" height="294" rx="1" fill="#060508"/>
<rect x="520" y="3245" width="293" height="294" rx="1" fill="#060508"/>
<rect x="814" y="3245" width="292" height="294" rx="1" fill="#060508"/>
<rect x="1107" y="3245" width="293" height="294" rx="1" fill="#060508"/>
<rect x="1401" y="3245" width="292" height="294" rx="1" fill="#060508"/>
<rect x="1694" y="3245" width="227" height="294" rx="1" fill="#060508"/>
<rect y="3540" width="227" height="294" rx="1" fill="#060508"/>
<rect x="228" y="3540" width="291" height="294" rx="1" fill="#060508"/>
<rect x="520" y="3540" width="293" height="294" rx="1" fill="#060508"/>
<rect x="814" y="3540" width="292" height="294" rx="1" fill="#060508"/>
<rect x="1107" y="3540" width="293" height="294" rx="1" fill="#060508"/>
<rect x="1401" y="3540" width="292" height="294" rx="1" fill="#060508"/>
<rect x="1694" y="3540" width="227" height="294" rx="1" fill="#060508"/>
<rect y="3835" width="227" height="294" rx="1" fill="#060508"/>
<rect x="228" y="3835" width="291" height="294" rx="1" fill="#060508"/>
<rect x="520" y="3835" width="293" height="294" rx="1" fill="#060508"/>
<rect x="814" y="3835" width="292" height="294" rx="1" fill="#060508"/>
<rect x="1107" y="3835" width="293" height="294" rx="1" fill="#060508"/>
<rect x="1401" y="3835" width="292" height="294" rx="1" fill="#060508"/>
<rect x="1694" y="3835" width="227" height="294" rx="1" fill="#060508"/>
<rect y="4130" width="227" height="294" rx="1" fill="#060508"/>
<rect x="228" y="4130" width="291" height="294" rx="1" fill="#060508"/>
<rect x="520" y="4130" width="293" height="294" rx="1" fill="#060508"/>
<rect x="814" y="4130" width="292" height="294" rx="1" fill="#060508"/>
<rect x="1107" y="4130" width="293" height="294" rx="1" fill="#060508"/>
<rect x="1401" y="4130" width="292" height="294" rx="1" fill="#060508"/>
<rect x="1694" y="4130" width="227" height="294" rx="1" fill="#060508"/>
<rect y="4425" width="227" height="294" rx="1" fill="#060508"/>
<rect x="228" y="4425" width="291" height="294" rx="1" fill="#060508"/>
<rect x="520" y="4425" width="293" height="294" rx="1" fill="#060508"/>
<rect x="814" y="4425" width="292" height="294" rx="1" fill="#060508"/>
<rect x="1107" y="4425" width="293" height="294" rx="1" fill="#060508"/>
<rect x="1401" y="4425" width="292" height="294" rx="1" fill="#060508"/>
<rect x="1694" y="4425" width="227" height="294" rx="1" fill="#060508"/>
<rect y="4720" width="227" height="294" rx="1" fill="#060508"/>
<rect x="228" y="4720" width="291" height="294" rx="1" fill="#060508"/>
<rect x="520" y="4720" width="293" height="294" rx="1" fill="#060508"/>
<rect x="814" y="4720" width="292" height="294" rx="1" fill="#060508"/>
<rect x="1107" y="4720" width="293" height="294" rx="1" fill="#060508"/>
<rect x="1401" y="4720" width="292" height="294" rx="1" fill="#060508"/>
<rect x="1694" y="4720" width="227" height="294" rx="1" fill="#060508"/>
<rect y="5015" width="227" height="294" rx="1" fill="#060508"/>
<rect x="228" y="5015" width="291" height="294" rx="1" fill="#060508"/>
<rect x="520" y="5015" width="293" height="294" rx="1" fill="#060508"/>
<rect x="814" y="5015" width="292" height="294" rx="1" fill="#060508"/>
<rect x="1107" y="5015" width="293" height="294" rx="1" fill="#060508"/>
<rect x="1401" y="5015" width="292" height="294" rx="1" fill="#060508"/>
<rect x="1694" y="5015" width="227" height="294" rx="1" fill="#060508"/>
<rect y="5310" width="227" height="294" rx="1" fill="#060508"/>
<rect x="228" y="5310" width="291" height="294" rx="1" fill="#060508"/>
<rect x="520" y="5310" width="293" height="294" rx="1" fill="#060508"/>
<rect x="814" y="5310" width="292" height="294" rx="1" fill="#060508"/>
<rect x="1107" y="5310" width="293" height="294" rx="1" fill="#060508"/>
<rect x="1401" y="5310" width="292" height="294" rx="1" fill="#060508"/>
<rect x="1694" y="5310" width="227" height="294" rx="1" fill="#060508"/>
<rect y="5605" width="227" height="294" rx="1" fill="#060508"/>
<rect x="228" y="5605" width="291" height="294" rx="1" fill="#060508"/>
<rect x="520" y="5605" width="293" height="294" rx="1" fill="#060508"/>
<rect x="814" y="5605" width="292" height="294" rx="1" fill="#060508"/>
<rect x="1107" y="5605" width="293" height="294" rx="1" fill="#060508"/>
<rect x="1401" y="5605" width="292" height="294" rx="1" fill="#060508"/>
<rect x="1694" y="5605" width="227" height="294" rx="1" fill="#060508"/>
<rect y="5900" width="227" height="294" rx="1" fill="#060508"/>
<rect x="228" y="5900" width="291" height="294" rx="1" fill="#060508"/>
<rect x="520" y="5900" width="293" height="294" rx="1" fill="#060508"/>
<rect x="814" y="5900" width="292" height="294" rx="1" fill="#060508"/>
<rect x="1107" y="5900" width="293" height="294" rx="1" fill="#060508"/>
<rect x="1401" y="5900" width="292" height="294" rx="1" fill="#060508"/>
<rect x="1694" y="5900" width="227" height="294" rx="1" fill="#060508"/>
<rect y="6195" width="227" height="294" rx="1" fill="#060508"/>
<rect x="228" y="6195" width="291" height="294" rx="1" fill="#060508"/>
<rect x="520" y="6195" width="293" height="294" rx="1" fill="#060508"/>
<rect x="814" y="6195" width="292" height="294" rx="1" fill="#060508"/>
<rect x="1107" y="6195" width="293" height="294" rx="1" fill="#060508"/>
<rect x="1401" y="6195" width="292" height="294" rx="1" fill="#060508"/>
<rect x="1694" y="6195" width="227" height="294" rx="1" fill="#060508"/>
<rect y="6490" width="227" height="294" rx="1" fill="#060508"/>
<rect x="228" y="6490" width="291" height="294" rx="1" fill="#060508"/>
<rect x="520" y="6490" width="293" height="294" rx="1" fill="#060508"/>
<rect x="814" y="6490" width="292" height="294" rx="1" fill="#060508"/>
<rect x="1107" y="6490" width="293" height="294" rx="1" fill="#060508"/>
<rect x="1401" y="6490" width="292" height="294" rx="1" fill="#060508"/>
<rect x="1694" y="6490" width="227" height="294" rx="1" fill="#060508"/>
<rect y="6785" width="227" height="294" rx="1" fill="#060508"/>
<rect x="228" y="6785" width="291" height="294" rx="1" fill="#060508"/>
<rect x="520" y="6785" width="293" height="294" rx="1" fill="#060508"/>
<rect x="814" y="6785" width="292" height="294" rx="1" fill="#060508"/>
<rect x="1107" y="6785" width="293" height="294" rx="1" fill="#060508"/>
<rect x="1401" y="6785" width="292" height="294" rx="1" fill="#060508"/>
<rect x="1694" y="6785" width="227" height="294" rx="1" fill="#060508"/>
<rect y="7080" width="227" height="294" rx="1" fill="#060508"/>
<rect x="228" y="7080" width="291" height="294" rx="1" fill="#060508"/>
<rect x="520" y="7080" width="293" height="294" rx="1" fill="#060508"/>
<rect x="814" y="7080" width="292" height="294" rx="1" fill="#060508"/>
<rect x="1107" y="7080" width="293" height="294" rx="1" fill="#060508"/>
<rect x="1401" y="7080" width="292" height="294" rx="1" fill="#060508"/>
<rect x="1694" y="7080" width="227" height="294" rx="1" fill="#060508"/>
<rect y="7375" width="227" height="294" rx="1" fill="#060508"/>
<rect x="228" y="7375" width="291" height="294" rx="1" fill="#060508"/>
<rect x="520" y="7375" width="293" height="294" rx="1" fill="#060508"/>
<rect x="814" y="7375" width="292" height="294" rx="1" fill="#060508"/>
<rect x="1107" y="7375" width="293" height="294" rx="1" fill="#060508"/>
<rect x="1401" y="7375" width="292" height="294" rx="1" fill="#060508"/>
<rect x="1694" y="7375" width="227" height="294" rx="1" fill="#060508"/>
<rect y="7670" width="227" height="294" rx="1" fill="#060508"/>
<rect x="228" y="7670" width="291" height="294" rx="1" fill="#060508"/>
<rect x="520" y="7670" width="293" height="294" rx="1" fill="#060508"/>
<rect x="814" y="7670" width="292" height="294" rx="1" fill="#060508"/>
<rect x="1107" y="7670" width="293" height="294" rx="1" fill="#060508"/>
<rect x="1401" y="7670" width="292" height="294" rx="1" fill="#060508"/>
<rect x="1694" y="7670" width="227" height="294" rx="1" fill="#060508"/>
<rect y="7965" width="227" height="294" rx="1" fill="#060508"/>
<rect x="228" y="7965" width="291" height="294" rx="1" fill="#060508"/>
<rect x="520" y="7965" width="293" height="294" rx="1" fill="#060508"/>
<rect x="814" y="7965" width="292" height="294" rx="1" fill="#060508"/>
<rect x="1107" y="7965" width="293" height="294" rx="1" fill="#060508"/>
<rect x="1401" y="7965" width="292" height="294" rx="1" fill="#060508"/>
<rect x="1694" y="7965" width="227" height="294" rx="1" fill="#060508"/>
<rect y="8260" width="227" height="294" rx="1" fill="#060508"/>
<rect x="228" y="8260" width="291" height="294" rx="1" fill="#060508"/>
<rect x="520" y="8260" width="293" height="294" rx="1" fill="#060508"/>
<rect x="814" y="8260" width="292" height="294" rx="1" fill="#060508"/>
<rect x="1107" y="8260" width="293" height="294" rx="1" fill="#060508"/>
<rect x="1401" y="8260" width="292" height="294" rx="1" fill="#060508"/>
<rect x="1694" y="8260" width="227" height="294" rx="1" fill="#060508"/>
<rect y="8555" width="227" height="294" rx="1" fill="#060508"/>
<rect x="228" y="8555" width="291" height="294" rx="1" fill="#060508"/>
<rect x="520" y="8555" width="293" height="294" rx="1" fill="#060508"/>
<rect x="814" y="8555" width="292" height="294" rx="1" fill="#060508"/>
<rect x="1107" y="8555" width="293" height="294" rx="1" fill="#060508"/>
<rect x="1401" y="8555" width="292" height="294" rx="1" fill="#060508"/>
<rect x="1694" y="8555" width="227" height="294" rx="1" fill="#060508"/>
<rect y="8850" width="227" height="294" rx="1" fill="#060508"/>
<rect x="228" y="8850" width="291" height="294" rx="1" fill="#060508"/>
<rect x="520" y="8850" width="293" height="294" rx="1" fill="#060508"/>
<rect x="814" y="8850" width="292" height="294" rx="1" fill="#060508"/>
<rect x="1107" y="8850" width="293" height="294" rx="1" fill="#060508"/>
<rect x="1401" y="8850" width="292" height="294" rx="1" fill="#060508"/>
<rect x="1694" y="8850" width="227" height="294" rx="1" fill="#060508"/>
<rect y="9145" width="227" height="294" rx="1" fill="#060508"/>
<rect x="228" y="9145" width="291" height="294" rx="1" fill="#060508"/>
<rect x="520" y="9145" width="293" height="294" rx="1" fill="#060508"/>
<rect x="814" y="9145" width="292" height="294" rx="1" fill="#060508"/>
<rect x="1107" y="9145" width="293" height="294" rx="1" fill="#060508"/>
<rect x="1401" y="9145" width="292" height="294" rx="1" fill="#060508"/>
<rect x="1694" y="9145" width="227" height="294" rx="1" fill="#060508"/>
<rect y="9440" width="227" height="294" rx="1" fill="#060508"/>
<rect x="228" y="9440" width="291" height="294" rx="1" fill="#060508"/>
<rect x="520" y="9440" width="293" height="294" rx="1" fill="#060508"/>
<rect x="814" y="9440" width="292" height="294" rx="1" fill="#060508"/>
<rect x="1107" y="9440" width="293" height="294" rx="1" fill="#060508"/>
<rect x="1401" y="9440" width="292" height="294" rx="1" fill="#060508"/>
<rect x="1694" y="9440" width="227" height="294" rx="1" fill="#060508"/>
<rect y="9735" width="227" height="294" rx="1" fill="#060508"/>
<rect x="228" y="9735" width="291" height="294" rx="1" fill="#060508"/>
<rect x="520" y="9735" width="293" height="294" rx="1" fill="#060508"/>
<rect x="814" y="9735" width="292" height="294" rx="1" fill="#060508"/>
<rect x="1107" y="9735" width="293" height="294" rx="1" fill="#060508"/>
<rect x="1401" y="9735" width="292" height="294" rx="1" fill="#060508"/>
<rect x="1694" y="9735" width="227" height="294" rx="1" fill="#060508"/>
<rect y="10030" width="227" height="294" rx="1" fill="#060508"/>
<rect x="228" y="10030" width="291" height="294" rx="1" fill="#060508"/>
<rect x="520" y="10030" width="293" height="294" rx="1" fill="#060508"/>
<rect x="814" y="10030" width="292" height="294" rx="1" fill="#060508"/>
<rect x="1107" y="10030" width="293" height="294" rx="1" fill="#060508"/>
<rect x="1401" y="10030" width="292" height="294" rx="1" fill="#060508"/>
<rect x="1694" y="10030" width="227" height="294" rx="1" fill="#060508"/>
<rect y="10325" width="227" height="294" rx="1" fill="#060508"/>
<rect x="228" y="10325" width="291" height="294" rx="1" fill="#060508"/>
<rect x="520" y="10325" width="293" height="294" rx="1" fill="#060508"/>
<rect x="814" y="10325" width="292" height="294" rx="1" fill="#060508"/>
<rect x="1107" y="10325" width="293" height="294" rx="1" fill="#060508"/>
<rect x="1401" y="10325" width="292" height="294" rx="1" fill="#060508"/>
<rect x="1694" y="10325" width="227" height="294" rx="1" fill="#060508"/>
<rect y="10620" width="227" height="294" rx="1" fill="#060508"/>
<rect x="228" y="10620" width="291" height="294" rx="1" fill="#060508"/>
<rect x="520" y="10620" width="293" height="294" rx="1" fill="#060508"/>
<rect x="814" y="10620" width="292" height="294" rx="1" fill="#060508"/>
<rect x="1107" y="10620" width="293" height="294" rx="1" fill="#060508"/>
<rect x="1401" y="10620" width="292" height="294" rx="1" fill="#060508"/>
<rect x="1694" y="10620" width="227" height="294" rx="1" fill="#060508"/>
<rect y="10915" width="227" height="294" rx="1" fill="#060508"/>
<rect x="228" y="10915" width="291" height="294" rx="1" fill="#060508"/>
<rect x="520" y="10915" width="293" height="294" rx="1" fill="#060508"/>
<rect x="814" y="10915" width="292" height="294" rx="1" fill="#060508"/>
<rect x="1107" y="10915" width="293" height="294" rx="1" fill="#060508"/>
<rect x="1401" y="10915" width="292" height="294" rx="1" fill="#060508"/>
<rect x="1694" y="10915" width="227" height="294" rx="1" fill="#060508"/>
<rect y="11210" width="227" height="294" rx="1" fill="#060508"/>
<rect x="228" y="11210" width="291" height="294" rx="1" fill="#060508"/>
<rect x="520" y="11210" width="293" height="294" rx="1" fill="#060508"/>
<rect x="814" y="11210" width="292" height="294" rx="1" fill="#060508"/>
<rect x="1107" y="11210" width="293" height="294" rx="1" fill="#060508"/>
<rect x="1401" y="11210" width="292" height="294" rx="1" fill="#060508"/>
<rect x="1694" y="11210" width="227" height="294" rx="1" fill="#060508"/>
</svg>
