<svg width="25" height="30" viewBox="0 0 25 30" fill="none" xmlns="http://www.w3.org/2000/svg">
<path d="M12.04 5.54C9.66667 5.54 7.34659 6.24379 5.3732 7.56237C3.39981 8.88094 1.86174 10.7551 0.95349 12.9478C0.0452385 15.1405 -0.192402 17.5533 0.270621 19.8811C0.733644 22.2089 1.87653 24.3471 3.55476 26.0253C5.23299 27.7035 7.37119 28.8464 9.69896 29.3094C12.0267 29.7724 14.4395 29.5348 16.6322 28.6266C18.825 27.7183 20.6991 26.1802 22.0177 24.2068C23.3363 22.2335 24.04 19.9134 24.04 17.54C24.0364 14.3585 22.771 11.3084 20.5213 9.05874C18.2717 6.80909 15.2215 5.54364 12.04 5.54ZM12.04 26.54C10.26 26.54 8.51995 26.0122 7.03991 25.0232C5.55987 24.0343 4.40632 22.6287 3.72513 20.9842C3.04394 19.3396 2.86571 17.53 3.21298 15.7842C3.56024 14.0384 4.41741 12.4347 5.67608 11.176C6.93476 9.91737 8.5384 9.0602 10.2842 8.71293C12.0301 8.36567 13.8397 8.5439 15.4842 9.22509C17.1287 9.90627 18.5343 11.0598 19.5233 12.5399C20.5122 14.0199 21.04 15.76 21.04 17.54C21.0374 19.9261 20.0883 22.2138 18.4011 23.901C16.7138 25.5883 14.4262 26.5374 12.04 26.54ZM16.6013 12.4788C16.7411 12.6181 16.8521 12.7837 16.9278 12.966C17.0035 13.1484 17.0425 13.3438 17.0425 13.5413C17.0425 13.7387 17.0035 13.9342 16.9278 14.1165C16.8521 14.2988 16.7411 14.4644 16.6013 14.6038L13.1013 18.1038C12.8195 18.3855 12.4373 18.5439 12.0388 18.5439C11.6403 18.5439 11.2581 18.3855 10.9763 18.1038C10.6945 17.822 10.5362 17.4398 10.5362 17.0413C10.5362 16.6427 10.6945 16.2605 10.9763 15.9788L14.4763 12.4788C14.6157 12.3389 14.7812 12.228 14.9636 12.1522C15.1459 12.0765 15.3414 12.0376 15.5388 12.0376C15.7362 12.0376 15.9317 12.0765 16.114 12.1522C16.2964 12.228 16.4619 12.3389 16.6013 12.4788ZM7.54004 2.04C7.54004 1.64218 7.69808 1.26065 7.97938 0.979341C8.26069 0.698036 8.64222 0.540001 9.04004 0.540001H15.04C15.4379 0.540001 15.8194 0.698036 16.1007 0.979341C16.382 1.26065 16.54 1.64218 16.54 2.04C16.54 2.43783 16.382 2.81936 16.1007 3.10066C15.8194 3.38197 15.4379 3.54 15.04 3.54H9.04004C8.64222 3.54 8.26069 3.38197 7.97938 3.10066C7.69808 2.81936 7.54004 2.43783 7.54004 2.04Z" fill="#222222"/>
</svg>
