<svg xmlns="http://www.w3.org/2000/svg" width="25" height="25" viewBox="0 0 25 25" fill="none">
  <path d="M16.4334 11.9541L11.1834 8.57909C11.0135 8.46983 10.8173 8.40835 10.6154 8.40109C10.4135 8.39383 10.2134 8.44106 10.0361 8.53783C9.85873 8.6346 9.71073 8.77733 9.6076 8.95104C9.50447 9.12474 9.45001 9.32301 9.44995 9.52503V16.275C9.45001 16.477 9.50447 16.6753 9.6076 16.849C9.71073 17.0227 9.85873 17.1655 10.0361 17.2622C10.2134 17.359 10.4135 17.4062 10.6154 17.399C10.8173 17.3917 11.0135 17.3302 11.1834 17.221L16.4334 13.846C16.5917 13.7441 16.7219 13.6041 16.812 13.4388C16.9022 13.2735 16.9494 13.0883 16.9494 12.9C16.9494 12.7118 16.9022 12.5265 16.812 12.3613C16.7219 12.196 16.5917 12.056 16.4334 11.9541ZM11.7 14.2125V11.5875L13.7446 12.9L11.7 14.2125ZM22.7821 7.3219C22.6786 6.91849 22.4807 6.54544 22.2047 6.23348C21.9288 5.92152 21.5827 5.67956 21.195 5.52753C17.925 4.26659 12.7584 4.27503 12.45 4.27503C12.1415 4.27503 6.97495 4.26659 3.70495 5.5294C3.3172 5.68143 2.9711 5.92339 2.69516 6.23536C2.41922 6.54732 2.22132 6.92036 2.11776 7.32378C1.87026 8.28003 1.57495 10.0238 1.57495 12.9C1.57495 15.7763 1.87026 17.52 2.11776 18.4763C2.22132 18.8797 2.41922 19.2527 2.69516 19.5647C2.9711 19.8767 3.3172 20.1186 3.70495 20.2707C6.84464 21.4828 11.7337 21.525 12.3909 21.525H12.509C13.1653 21.525 18.0553 21.4828 21.195 20.2707C21.5827 20.1186 21.9288 19.8767 22.2047 19.5647C22.4807 19.2527 22.6786 18.8797 22.7821 18.4763C23.0296 17.52 23.325 15.7763 23.325 12.9C23.325 10.0238 23.0296 8.28003 22.7821 7.32378V7.3219ZM20.6062 17.9119C20.5927 17.9694 20.5658 18.0229 20.5276 18.068C20.4895 18.1132 20.4413 18.1486 20.3868 18.1716C17.5856 19.2525 12.8503 19.275 12.48 19.275H12.4434C12.3937 19.275 7.41464 19.291 4.51589 18.1716C4.46093 18.149 4.41212 18.1137 4.37349 18.0685C4.33486 18.0234 4.30751 17.9697 4.2937 17.9119C4.11745 17.2332 3.82495 15.6788 3.82495 12.9C3.82495 10.1213 4.12026 8.5669 4.2937 7.88815C4.30723 7.83065 4.33415 7.77715 4.37227 7.73202C4.41039 7.68689 4.45864 7.65141 4.51308 7.62846C7.41464 6.50909 12.3928 6.52503 12.4425 6.52503H12.4565C12.5071 6.52503 17.4853 6.50909 20.384 7.62846C20.439 7.65105 20.4878 7.68637 20.5264 7.73152C20.565 7.77667 20.5924 7.83036 20.6062 7.88815C20.7825 8.5669 21.075 10.1213 21.075 12.9C21.075 15.6788 20.7796 17.2332 20.6062 17.9119Z" fill="#222222"/>
</svg>