<svg xmlns="http://www.w3.org/2000/svg" width="25" height="25" viewBox="0 0 25 25" fill="none">
  <path d="M21.125 2.77502H4.625C4.12772 2.77502 3.65081 2.97257 3.29917 3.3242C2.94754 3.67583 2.75 4.15274 2.75 4.65002V21.15C2.75 21.6473 2.94754 22.1242 3.29917 22.4758C3.65081 22.8275 4.12772 23.025 4.625 23.025H21.125C21.6223 23.025 22.0992 22.8275 22.4508 22.4758C22.8025 22.1242 23 21.6473 23 21.15V4.65002C23 4.15274 22.8025 3.67583 22.4508 3.3242C22.0992 2.97257 21.6223 2.77502 21.125 2.77502ZM20.75 20.775H5V5.02502H20.75V20.775ZM11.375 17.4V12.525C11.3752 12.2912 11.4483 12.0633 11.584 11.873C11.7197 11.6826 11.9114 11.5392 12.1324 11.4628C12.3533 11.3864 12.5926 11.3808 12.8169 11.4466C13.0412 11.5125 13.2395 11.6466 13.3841 11.8303C13.9555 11.5308 14.5945 11.3838 15.2393 11.4035C15.8842 11.4231 16.5131 11.6088 17.0651 11.9426C17.6172 12.2764 18.0739 12.747 18.3909 13.3088C18.708 13.8707 18.8747 14.5049 18.875 15.15V17.4C18.875 17.6984 18.7565 17.9845 18.5455 18.1955C18.3345 18.4065 18.0484 18.525 17.75 18.525C17.4516 18.525 17.1655 18.4065 16.9545 18.1955C16.7435 17.9845 16.625 17.6984 16.625 17.4V15.15C16.625 14.7522 16.467 14.3707 16.1857 14.0894C15.9044 13.8081 15.5228 13.65 15.125 13.65C14.7272 13.65 14.3456 13.8081 14.0643 14.0894C13.783 14.3707 13.625 14.7522 13.625 15.15V17.4C13.625 17.6984 13.5065 17.9845 13.2955 18.1955C13.0845 18.4065 12.7984 18.525 12.5 18.525C12.2016 18.525 11.9155 18.4065 11.7045 18.1955C11.4935 17.9845 11.375 17.6984 11.375 17.4ZM9.875 12.525V17.4C9.875 17.6984 9.75647 17.9845 9.5455 18.1955C9.33452 18.4065 9.04837 18.525 8.75 18.525C8.45163 18.525 8.16548 18.4065 7.9545 18.1955C7.74353 17.9845 7.625 17.6984 7.625 17.4V12.525C7.625 12.2267 7.74353 11.9405 7.9545 11.7295C8.16548 11.5186 8.45163 11.4 8.75 11.4C9.04837 11.4 9.33452 11.5186 9.5455 11.7295C9.75647 11.9405 9.875 12.2267 9.875 12.525ZM7.25 8.40002C7.25 8.10335 7.33797 7.81334 7.5028 7.56667C7.66762 7.32 7.90189 7.12774 8.17597 7.0142C8.45006 6.90067 8.75166 6.87097 9.04264 6.92885C9.33361 6.98672 9.60088 7.12959 9.81066 7.33936C10.0204 7.54914 10.1633 7.81642 10.2212 8.10739C10.2791 8.39836 10.2494 8.69996 10.1358 8.97405C10.0223 9.24814 9.83003 9.48241 9.58335 9.64723C9.33668 9.81205 9.04667 9.90002 8.75 9.90002C8.35218 9.90002 7.97064 9.74199 7.68934 9.46068C7.40804 9.17938 7.25 8.79785 7.25 8.40002Z" fill="#222222"/>
</svg>