<svg xmlns="http://www.w3.org/2000/svg" width="25" height="25" viewBox="0 0 25 25" fill="none">
  <path d="M12.3499 2.77502C10.3473 2.77502 8.38976 3.36885 6.72471 4.48139C5.05966 5.59394 3.76192 7.17525 2.99558 9.02535C2.22924 10.8755 2.02873 12.9113 2.41941 14.8753C2.81008 16.8394 3.7744 18.6435 5.1904 20.0595C6.60641 21.4755 8.41051 22.4398 10.3746 22.8305C12.3386 23.2212 14.3744 23.0206 16.2245 22.2543C18.0746 21.488 19.6559 20.1902 20.7685 18.5252C21.881 16.8601 22.4749 14.9026 22.4749 12.9C22.4719 10.2156 21.4042 7.64202 19.506 5.74386C17.6079 3.8457 15.0343 2.778 12.3499 2.77502ZM13.4749 20.6935V15.525H15.3499C15.6482 15.525 15.9344 15.4065 16.1454 15.1955C16.3563 14.9845 16.4749 14.6984 16.4749 14.4C16.4749 14.1017 16.3563 13.8155 16.1454 13.6045C15.9344 13.3936 15.6482 13.275 15.3499 13.275H13.4749V11.4C13.4749 11.1017 13.5934 10.8155 13.8044 10.6045C14.0153 10.3936 14.3015 10.275 14.5999 10.275H16.0999C16.3982 10.275 16.6844 10.1565 16.8954 9.94552C17.1063 9.73454 17.2249 9.44839 17.2249 9.15002C17.2249 8.85166 17.1063 8.56551 16.8954 8.35453C16.6844 8.14355 16.3982 8.02502 16.0999 8.02502H14.5999C13.7048 8.02502 12.8463 8.3806 12.2134 9.01354C11.5804 9.64647 11.2249 10.5049 11.2249 11.4V13.275H9.34986C9.05149 13.275 8.76534 13.3936 8.55436 13.6045C8.34338 13.8155 8.22486 14.1017 8.22486 14.4C8.22486 14.6984 8.34338 14.9845 8.55436 15.1955C8.76534 15.4065 9.05149 15.525 9.34986 15.525H11.2249V20.6935C9.25432 20.409 7.46465 19.3888 6.21603 17.838C4.9674 16.2873 4.3525 14.3211 4.49508 12.3353C4.63765 10.3494 5.52713 8.4913 6.98448 7.13483C8.44184 5.77835 10.3589 5.02423 12.3499 5.02423C14.3408 5.02423 16.2579 5.77835 17.7152 7.13483C19.1726 8.4913 20.0621 10.3494 20.2046 12.3353C20.3472 14.3211 19.7323 16.2873 18.4837 17.838C17.2351 19.3888 15.4454 20.409 13.4749 20.6935Z" fill="#222222"/>
</svg>