<svg xmlns="http://www.w3.org/2000/svg" width="25" height="25" viewBox="0 0 25 25" fill="none">
  <path d="M12.7917 8.40002C11.9017 8.40002 11.0317 8.66395 10.2917 9.15841C9.55166 9.65288 8.97488 10.3557 8.63429 11.1779C8.2937 12.0002 8.20458 12.905 8.37821 13.7779C8.55185 14.6508 8.98043 15.4527 9.60977 16.082C10.2391 16.7113 11.0409 17.1399 11.9138 17.3136C12.7868 17.4872 13.6916 17.3981 14.5138 17.0575C15.3361 16.7169 16.0389 16.1401 16.5334 15.4001C17.0278 14.6601 17.2917 13.79 17.2917 12.9C17.2905 11.7069 16.816 10.5631 15.9724 9.71941C15.1287 8.87577 13.9848 8.40127 12.7917 8.40002ZM12.7917 15.15C12.3467 15.15 11.9117 15.0181 11.5417 14.7708C11.1717 14.5236 10.8833 14.1722 10.713 13.7611C10.5427 13.3499 10.4982 12.8975 10.585 12.4611C10.6718 12.0246 10.8861 11.6237 11.2008 11.309C11.5154 10.9944 11.9163 10.7801 12.3528 10.6933C12.7893 10.6064 13.2417 10.651 13.6528 10.8213C14.0639 10.9916 14.4153 11.28 14.6626 11.65C14.9098 12.02 15.0417 12.455 15.0417 12.9C15.0417 13.4968 14.8047 14.0691 14.3827 14.491C13.9608 14.913 13.3885 15.15 12.7917 15.15ZM17.2917 2.77502H8.29175C6.80044 2.77676 5.37071 3.36995 4.31619 4.42447C3.26167 5.47898 2.66848 6.90871 2.66675 8.40002V17.4C2.66848 18.8913 3.26167 20.3211 4.31619 21.3756C5.37071 22.4301 6.80044 23.0233 8.29175 23.025H17.2917C18.7831 23.0233 20.2128 22.4301 21.2673 21.3756C22.3218 20.3211 22.915 18.8913 22.9167 17.4V8.40002C22.915 6.90871 22.3218 5.47898 21.2673 4.42447C20.2128 3.36995 18.7831 2.77676 17.2917 2.77502ZM20.6667 17.4C20.6667 18.2951 20.3112 19.1536 19.6782 19.7865C19.0453 20.4194 18.1869 20.775 17.2917 20.775H8.29175C7.39664 20.775 6.5382 20.4194 5.90526 19.7865C5.27233 19.1536 4.91675 18.2951 4.91675 17.4V8.40002C4.91675 7.50492 5.27233 6.64647 5.90526 6.01354C6.5382 5.3806 7.39664 5.02502 8.29175 5.02502H17.2917C18.1869 5.02502 19.0453 5.3806 19.6782 6.01354C20.3112 6.64647 20.6667 7.50492 20.6667 8.40002V17.4ZM19.1667 8.02502C19.1667 8.3217 19.0788 8.61171 18.914 8.85838C18.7491 9.10505 18.5149 9.29731 18.2408 9.41084C17.9667 9.52438 17.6651 9.55408 17.3741 9.4962C17.0831 9.43832 16.8159 9.29546 16.6061 9.08568C16.3963 8.87591 16.2534 8.60863 16.1956 8.31766C16.1377 8.02669 16.1674 7.72509 16.2809 7.451C16.3945 7.17691 16.5867 6.94264 16.8334 6.77782C17.0801 6.613 17.3701 6.52502 17.6667 6.52502C18.0646 6.52502 18.4461 6.68306 18.7274 6.96436C19.0087 7.24567 19.1667 7.6272 19.1667 8.02502Z" fill="white"/>
</svg>