<svg xmlns="http://www.w3.org/2000/svg" width="33" height="33" viewBox="0 0 33 33" fill="none">
  <path d="M30.373 6.54H2.37305C1.97522 6.54 1.59369 6.69804 1.31239 6.97934C1.03108 7.26065 0.873047 7.64218 0.873047 8.04V24.04C0.873047 24.4378 1.03108 24.8194 1.31239 25.1007C1.59369 25.382 1.97522 25.54 2.37305 25.54H30.373C30.7709 25.54 31.1524 25.382 31.4337 25.1007C31.715 24.8194 31.873 24.4378 31.873 24.04V8.04C31.873 7.64218 31.715 7.26065 31.4337 6.97934C31.1524 6.69804 30.7709 6.54 30.373 6.54ZM23.0243 22.54H9.7218C9.425 21.1003 8.71288 19.7791 7.67343 18.7396C6.63399 17.7002 5.31277 16.9881 3.87305 16.6913V15.3888C5.31277 15.092 6.63399 14.3798 7.67343 13.3404C8.71288 12.3009 9.425 10.9797 9.7218 9.54H23.0243C23.3211 10.9797 24.0332 12.3009 25.0727 13.3404C26.1121 14.3798 27.4333 15.092 28.873 15.3888V16.6913C27.4333 16.9881 26.1121 17.7002 25.0727 18.7396C24.0332 19.7791 23.3211 21.1003 23.0243 22.54ZM28.873 12.2825C28.2414 12.057 27.6676 11.694 27.1934 11.2197C26.7191 10.7454 26.3561 10.1717 26.1305 9.54H28.873V12.2825ZM6.61555 9.54C6.39004 10.1717 6.02703 10.7454 5.55274 11.2197C5.07846 11.694 4.50474 12.057 3.87305 12.2825V9.54H6.61555ZM3.87305 19.7975C4.50474 20.023 5.07846 20.386 5.55274 20.8603C6.02703 21.3346 6.39004 21.9083 6.61555 22.54H3.87305V19.7975ZM26.1305 22.54C26.3561 21.9083 26.7191 21.3346 27.1934 20.8603C27.6676 20.386 28.2414 20.023 28.873 19.7975V22.54H26.1305ZM16.373 11.04C15.3841 11.04 14.4174 11.3332 13.5952 11.8827C12.773 12.4321 12.1321 13.213 11.7536 14.1266C11.3752 15.0402 11.2762 16.0455 11.4691 17.0155C11.662 17.9854 12.1383 18.8763 12.8375 19.5755C13.5368 20.2748 14.4277 20.751 15.3976 20.9439C16.3675 21.1369 17.3728 21.0378 18.2865 20.6594C19.2001 20.281 19.981 19.6401 20.5304 18.8179C21.0798 17.9956 21.373 17.0289 21.373 16.04C21.373 14.7139 20.8463 13.4421 19.9086 12.5045C18.9709 11.5668 17.6991 11.04 16.373 11.04ZM16.373 18.04C15.9775 18.04 15.5908 17.9227 15.2619 17.7029C14.933 17.4832 14.6767 17.1708 14.5253 16.8054C14.3739 16.4399 14.3343 16.0378 14.4115 15.6498C14.4886 15.2619 14.6791 14.9055 14.9588 14.6258C15.2385 14.3461 15.5949 14.1556 15.9829 14.0784C16.3708 14.0013 16.773 14.0409 17.1384 14.1922C17.5039 14.3436 17.8162 14.6 18.036 14.9289C18.2557 15.2578 18.373 15.6444 18.373 16.04C18.373 16.5704 18.1623 17.0791 17.7873 17.4542C17.4122 17.8293 16.9035 18.04 16.373 18.04Z" fill="#222222"/>
</svg>