<svg width="161" height="180" viewBox="0 0 161 180" fill="none" xmlns="http://www.w3.org/2000/svg">
<g clip-path="url(#clip0_2383_46)">
<path fill-rule="evenodd" clip-rule="evenodd" d="M80.506 20.7049C42.5088 20.7049 11.706 51.5077 11.706 89.5049C11.706 127.502 42.5088 158.305 80.506 158.305C118.503 158.305 149.306 127.502 149.306 89.5049C149.306 51.5077 118.503 20.7049 80.506 20.7049ZM1.03931 89.5049C1.03931 45.6166 36.6177 10.0382 80.506 10.0382C124.394 10.0382 159.973 45.6166 159.973 89.5049C159.973 133.393 124.394 168.972 80.506 168.972C36.6177 168.972 1.03931 133.393 1.03931 89.5049Z" fill="white"/>
<path fill-rule="evenodd" clip-rule="evenodd" d="M80.5068 38.3048C52.2298 38.3048 29.3068 61.2279 29.3068 89.5048C29.3068 117.782 52.2298 140.705 80.5068 140.705C108.784 140.705 131.707 117.782 131.707 89.5048C131.707 61.2279 108.784 38.3048 80.5068 38.3048ZM18.6401 89.5048C18.6401 55.3368 46.3388 27.6382 80.5068 27.6382C114.675 27.6382 142.373 55.3368 142.373 89.5048C142.373 123.673 114.675 151.372 80.5068 151.372C46.3388 151.372 18.6401 123.673 18.6401 89.5048Z" fill="white"/>
<path fill-rule="evenodd" clip-rule="evenodd" d="M80.5052 58.0382C63.1266 58.0382 49.0385 72.1264 49.0385 89.5049C49.0385 106.883 63.1266 120.972 80.5052 120.972C97.8837 120.972 111.972 106.883 111.972 89.5049C111.972 72.1264 97.8837 58.0382 80.5052 58.0382ZM38.3718 89.5049C38.3718 66.2353 57.2356 47.3716 80.5052 47.3716C103.775 47.3716 122.638 66.2353 122.638 89.5049C122.638 112.775 103.775 131.638 80.5052 131.638C57.2356 131.638 38.3718 112.775 38.3718 89.5049Z" fill="white"/>
<path fill-rule="evenodd" clip-rule="evenodd" d="M80.5052 77.7715C74.0251 77.7715 68.7719 83.0247 68.7719 89.5049C68.7719 95.985 74.0251 101.238 80.5052 101.238C86.9854 101.238 92.2386 95.985 92.2386 89.5049C92.2386 83.0247 86.9854 77.7715 80.5052 77.7715ZM58.1052 89.5049C58.1052 77.1337 68.134 67.1049 80.5052 67.1049C92.8764 67.1049 102.905 77.1337 102.905 89.5049C102.905 101.876 92.8764 111.905 80.5052 111.905C68.134 111.905 58.1052 101.876 58.1052 89.5049Z" fill="white"/>
</g>
<defs>
<clipPath id="clip0_2383_46">
<rect width="160" height="180" fill="white" transform="translate(0.125)"/>
</clipPath>
</defs>
</svg>
