<svg xmlns="http://www.w3.org/2000/svg" width="25" height="25" viewBox="0 0 25 25" fill="none">
  <path d="M19.5962 18.8541C19.8075 19.0654 19.9263 19.3521 19.9263 19.6509C19.9263 19.9498 19.8075 20.2365 19.5962 20.4478C19.3848 20.6592 19.0982 20.7779 18.7993 20.7779C18.5004 20.7779 18.2138 20.6592 18.0024 20.4478L12.0503 14.4938L6.09619 20.4459C5.88485 20.6573 5.5982 20.776 5.29931 20.776C5.00043 20.776 4.71378 20.6573 4.50244 20.4459C4.2911 20.2346 4.17236 19.948 4.17236 19.6491C4.17236 19.3502 4.2911 19.0635 4.50244 18.8522L10.4565 12.9L4.50431 6.94594C4.29297 6.7346 4.17424 6.44795 4.17424 6.14907C4.17424 5.85018 4.29297 5.56354 4.50431 5.35219C4.71566 5.14085 5.0023 5.02212 5.30119 5.02212C5.60008 5.02212 5.88672 5.14085 6.09806 5.35219L12.0503 11.3063L18.0043 5.35126C18.2157 5.13991 18.5023 5.02118 18.8012 5.02118C19.1001 5.02118 19.3867 5.13991 19.5981 5.35126C19.8094 5.5626 19.9281 5.84924 19.9281 6.14813C19.9281 6.44702 19.8094 6.73366 19.5981 6.94501L13.644 12.9L19.5962 18.8541Z" fill="white"/>
</svg>