<svg width="32" height="33" viewBox="0 0 32 33" fill="none" xmlns="http://www.w3.org/2000/svg">
<path d="M25.4999 8.64001V21.64C25.4999 22.0378 25.3419 22.4194 25.0606 22.7007C24.7793 22.982 24.3978 23.14 23.9999 23.14C23.6021 23.14 23.2206 22.982 22.9393 22.7007C22.658 22.4194 22.4999 22.0378 22.4999 21.64V12.265L9.0612 25.7013C8.7794 25.9831 8.39721 26.1414 7.9987 26.1414C7.60018 26.1414 7.21799 25.9831 6.9362 25.7013C6.6544 25.4195 6.49609 25.0373 6.49609 24.6388C6.49609 24.2402 6.6544 23.8581 6.9362 23.5763L20.3749 10.14H10.9999C10.6021 10.14 10.2206 9.98198 9.93929 9.70068C9.65798 9.41937 9.49995 9.03784 9.49995 8.64001C9.49995 8.24219 9.65798 7.86066 9.93929 7.57935C10.2206 7.29805 10.6021 7.14001 10.9999 7.14001H23.9999C24.3978 7.14001 24.7793 7.29805 25.0606 7.57935C25.3419 7.86066 25.4999 8.24219 25.4999 8.64001Z" fill="#FF9A53"/>
</svg>
