<svg width="161" height="180" viewBox="0 0 161 180" fill="none" xmlns="http://www.w3.org/2000/svg">
<g clip-path="url(#clip0_2383_96)">
<path d="M58.7637 30.9653C80.6761 52.8534 80.8634 89.7487 80.8634 89.7487C80.8634 89.7487 45.5238 91.1563 23.6114 69.2683C1.69903 47.3802 1.51172 10.4849 1.51172 10.4849C1.51172 10.4849 36.8514 9.07718 58.7637 30.9653Z" fill="#FEFEFE"/>
<path d="M102.963 30.9653C81.0504 52.8534 80.8631 89.7487 80.8631 89.7487C80.8631 89.7487 116.203 91.1563 138.115 69.2683C160.028 47.3802 160.215 10.4849 160.215 10.4849C160.215 10.4849 124.875 9.07718 102.963 30.9653Z" fill="#FEFEFE"/>
<path d="M58.7637 148.501C80.6761 126.613 80.8634 89.718 80.8634 89.718C80.8634 89.718 45.5238 88.3103 23.6114 110.198C1.69903 132.087 1.51172 168.982 1.51172 168.982C1.51172 168.982 36.8514 170.389 58.7637 148.501Z" fill="#FEFEFE"/>
<path d="M102.963 148.501C81.0504 126.613 80.8631 89.718 80.8631 89.718C80.8631 89.718 116.203 88.3103 138.115 110.198C160.028 132.087 160.215 168.982 160.215 168.982C160.215 168.982 124.875 170.389 102.963 148.501Z" fill="#FEFEFE"/>
</g>
<defs>
<clipPath id="clip0_2383_96">
<rect width="160" height="180" fill="white" transform="translate(0.875)"/>
</clipPath>
</defs>
</svg>
