<svg xmlns="http://www.w3.org/2000/svg" width="33" height="33" viewBox="0 0 33 33" fill="none">
  <path d="M16.352 19.6575C17.6084 18.6015 18.5095 17.1847 18.9333 15.5991C19.357 14.0136 19.2829 12.3361 18.7209 10.7942C18.1589 9.25219 17.1363 7.92037 15.7918 6.97932C14.4472 6.03826 12.8457 5.53351 11.2045 5.53351C9.56336 5.53351 7.96189 6.03826 6.61732 6.97932C5.27275 7.92037 4.25013 9.25219 3.68816 10.7942C3.12619 12.3361 3.05206 14.0136 3.47582 15.5991C3.89958 17.1847 4.80072 18.6015 6.05704 19.6575C4.09527 20.5445 2.39519 21.9222 1.12079 23.6575C0.885411 23.9782 0.787088 24.3794 0.847451 24.7726C0.907815 25.1658 1.12192 25.519 1.44267 25.7544C1.76341 25.9898 2.16453 26.0881 2.55777 26.0277C2.95101 25.9673 3.30416 25.7532 3.53954 25.4325C4.42172 24.2277 5.57549 23.2478 6.90726 22.5723C8.23902 21.8968 9.71127 21.5448 11.2045 21.5448C12.6978 21.5448 14.1701 21.8968 15.5018 22.5723C16.8336 23.2478 17.9874 24.2277 18.8695 25.4325C19.1049 25.7534 19.4581 25.9677 19.8515 26.0282C20.2449 26.0886 20.6461 25.9904 20.967 25.755C21.288 25.5196 21.5022 25.1664 21.5627 24.773C21.6232 24.3797 21.5249 23.9784 21.2895 23.6575C20.0144 21.9224 18.314 20.5448 16.352 19.6575ZM6.20454 13.54C6.20454 12.5511 6.49779 11.5844 7.04719 10.7621C7.5966 9.9399 8.37749 9.29904 9.29112 8.9206C10.2048 8.54216 11.2101 8.44314 12.18 8.63607C13.1499 8.829 14.0408 9.3052 14.7401 10.0045C15.4393 10.7037 15.9155 11.5946 16.1085 12.5645C16.3014 13.5345 16.2024 14.5398 15.8239 15.4534C15.4455 16.367 14.8046 17.1479 13.9824 17.6973C13.1601 18.2468 12.1934 18.54 11.2045 18.54C9.87846 18.54 8.60669 18.0132 7.66901 17.0755C6.73133 16.1378 6.20454 14.8661 6.20454 13.54ZM31.967 25.7487C31.8082 25.8654 31.628 25.9497 31.4366 25.9967C31.2453 26.0437 31.0465 26.0525 30.8517 26.0227C30.6569 25.9929 30.4699 25.925 30.3014 25.8228C30.1329 25.7207 29.9861 25.5864 29.8695 25.4275C28.9852 24.225 27.831 23.2468 26.4997 22.5716C25.1684 21.8964 23.6972 21.543 22.2045 21.54C21.8067 21.54 21.4252 21.382 21.1439 21.1007C20.8626 20.8194 20.7045 20.4378 20.7045 20.04C20.7045 19.6422 20.8626 19.2606 21.1439 18.9793C21.4252 18.698 21.8067 18.54 22.2045 18.54C22.9407 18.5391 23.6677 18.3757 24.3334 18.0614C24.9991 17.7471 25.5872 17.2896 26.0557 16.7217C26.5242 16.1538 26.8615 15.4894 27.0435 14.7761C27.2255 14.0627 27.2477 13.318 27.1086 12.5951C26.9694 11.8721 26.6724 11.1888 26.2386 10.594C25.8048 9.99915 25.2451 9.50743 24.5993 9.15397C23.9535 8.80051 23.2376 8.59402 22.5027 8.54925C21.7679 8.50449 21.0322 8.62254 20.3483 8.895C20.1651 8.97001 19.9688 9.00802 19.7709 9.00683C19.5729 9.00564 19.3771 8.96527 19.1948 8.88805C19.0126 8.81084 18.8474 8.6983 18.7088 8.55693C18.5702 8.41556 18.4609 8.24816 18.3874 8.06437C18.3138 7.88059 18.2773 7.68405 18.28 7.4861C18.2828 7.28815 18.3247 7.0927 18.4033 6.91102C18.482 6.72934 18.5958 6.56502 18.7382 6.42754C18.8807 6.29006 19.0489 6.18214 19.2333 6.11C20.9987 5.40318 22.9581 5.34834 24.7603 5.95531C26.5625 6.56228 28.0895 7.79136 29.0675 9.42219C30.0456 11.053 30.4108 12.9789 30.0975 14.8546C29.7843 16.7302 28.8132 18.433 27.3583 19.6575C29.3201 20.5445 31.0201 21.9222 32.2945 23.6575C32.5276 23.9785 32.624 24.3788 32.5626 24.7707C32.5012 25.1627 32.2871 25.5143 31.967 25.7487Z" fill="#222222"/>
</svg>