<?xml version="1.0" encoding="utf-8"?>
<!DOCTYPE svg PUBLIC "-//W3C//DTD SVG 1.0//EN" "http://www.w3.org/TR/2001/REC-SVG-20010904/DTD/svg10.dtd">
<svg version="1.0" xmlns="http://www.w3.org/2000/svg" width="93px" height="82px" viewBox="0 0 93 82" preserveAspectRatio="xMidYMid meet">
 <g fill="transparent">
  <path d="M0 41 l0 -41 21.1 0 21.1 0 -0.4 4 c-0.3 3.9 -0.3 4 2.9 4 3.2 0 3.3 -0.1 3.3 -4 l0 -4 22.5 0 22.5 0 0 41 0 41 -46.5 0 -46.5 0 0 -41z m46 25 c0 -2.6 -9.8 -10.8 -14.9 -12.5 -2.9 -0.9 -5.4 -1.5 -5.6 -1.3 -0.9 0.8 3.5 6.7 6.9 9.3 5.3 4.1 13.6 6.8 13.6 4.5z m17.9 -12.3 c3.5 -7.2 3.6 -9.9 0.8 -16.1 -1.4 -3.1 -3.1 -5.6 -3.6 -5.6 -0.6 0 -1.7 1.2 -2.5 2.8 -0.8 1.5 -3 4.2 -5 6.1 l-3.5 3.4 3.3 3.7 c1.8 2 4.1 5.1 5.2 6.8 1 1.8 2.1 3.2 2.5 3.2 0.4 0 1.7 -1.9 2.8 -4.3z m-29.4 -19.3 c1.9 -0.9 5.3 -3.7 7.7 -6.2 3.5 -3.8 3.9 -4.7 2.5 -5 -4.7 -0.9 -14.8 5.1 -18.1 10.8 l-1.9 3.3 3.2 -0.6 c1.8 -0.4 4.8 -1.4 6.6 -2.3z m-20.5 -11.6 c0 -0.5 -0.7 -0.8 -1.5 -0.8 -2 0 -3.5 3.2 -2.8 6 0.6 2.2 0.7 2.1 2.4 -1.1 1 -1.9 1.8 -3.7 1.9 -4.1z m65.8 1 c-0.5 -1 -1.5 -1.8 -2.3 -1.8 -1.9 0 -1.9 0.2 0.2 4.6 1.7 3.4 1.8 3.5 2.4 1.3 0.3 -1.3 0.2 -3.2 -0.3 -4.1z m-51.3 -13.6 c-0.8 -0.2 -1.5 -0.8 -1.5 -1.3 0 -0.5 -1.1 -0.2 -2.5 0.7 -1.4 0.9 -2.5 2.4 -2.5 3.4 0 1.7 0.3 1.7 4 -0.3 2.4 -1.3 3.4 -2.3 2.5 -2.5z m39.5 2.4 c0 -2.2 -4.2 -4.5 -6.1 -3.3 -1.5 0.9 -1.3 1.3 1.5 2.8 4 2.1 4.6 2.2 4.6 0.5z"/>
 </g>
 <g fill="#ef9f1a">
  <path d="M36.6 68.5 c-7.3 -2.6 -13.7 -9.5 -16.1 -17.2 -0.6 -2.2 -0.4 -2.3 4.3 -2.3 10 0 17.9 4.5 23.9 13.7 3 4.5 3.4 5.6 2.2 6.4 -2.1 1.3 -9.8 1 -14.3 -0.6z"/>
  <path d="M55.7 58.2 c-2.8 -4.3 -6.5 -8.5 -9.1 -10.4 l-4.5 -3.1 3.7 -2.7 c4.7 -3.5 8.3 -7.4 11.2 -12.5 1.3 -2.2 2.5 -4.2 2.7 -4.4 0.8 -1.1 5.8 4.9 7.9 9.4 4.1 8.7 2.5 19.5 -4 27.1 l-3.3 3.8 -4.6 -7.2z"/>
  <path d="M20.4 38.4 c2.2 -8.7 9.3 -15.6 18.5 -18 4.7 -1.2 13.1 -0.9 13.1 0.5 0 1.8 -6.1 10.1 -9.8 13.2 -4.5 3.8 -8.6 5.4 -17.1 6.5 l-5.4 0.7 0.7 -2.9z"/>
 </g>
 <g fill="#5e005f">
  <path d="M0 40.5 c0 -0.9 1.2 -1.8 2.9 -2.1 2.4 -0.5 3 -1.3 3.6 -4.1 0.4 -2.5 0.2 -4 -0.9 -5.2 -2.1 -2.3 -2 -2.4 1 -7.2 2.2 -3.5 2.9 -4 5.2 -3.4 2.3 0.5 3.2 0 5 -2.5 1.4 -1.9 2 -3.8 1.7 -5.2 -0.5 -1.9 0.2 -2.7 4.4 -5.1 4.9 -2.7 5 -2.7 6.4 -0.7 1.3 1.9 1.7 1.9 5.3 0.8 2.8 -0.9 4 -1.9 4.2 -3.6 0.3 -2 0.9 -2.2 6.3 -2.2 5.5 0 5.9 0.1 5.9 2.4 0 1.9 0.7 2.5 4 3.4 3.3 0.8 4.1 0.7 5.6 -0.9 1.6 -1.8 1.8 -1.8 6.5 0.8 4.2 2.4 4.7 3 4.2 5.5 -0.7 3.5 4.1 8.2 7 6.7 2.3 -1.3 2.7 -0.9 5.7 4.6 2.4 4.5 2.4 4.7 0.7 6 -1.5 1.1 -1.8 2.1 -1.2 5.4 0.6 3.4 1.1 4 3.3 4.3 1.6 0.2 2.8 1 3 2.1 0.3 1.6 -0.3 1.8 -5.4 1.5 l-5.8 -0.3 -0.8 -3.8 c-3.3 -15.9 -19.8 -28.1 -35.6 -26.3 -14.7 1.7 -27.2 12.7 -30 26.3 l-0.8 3.8 -5.7 0.3 c-4.6 0.2 -5.7 0 -5.7 -1.3z"/>
 </g>
</svg>