<svg xmlns="http://www.w3.org/2000/svg" xmlns:xlink="http://www.w3.org/1999/xlink" viewBox="0 0 240 60" width="240" height="60" preserveAspectRatio="xMidYMid meet" style="width: 100%; height: 100%; transform: translate3d(0px, 0px, 0px); content-visibility: visible;"><defs><clipPath id="__lottie_element_81"><rect width="240" height="60" x="0" y="0"></rect></clipPath></defs><g clip-path="url(#__lottie_element_81)"><g style="display: block;" transform="matrix(1,0,0,1,140.36900329589844,36.81399917602539)" opacity="1" fill="rgb(0,0,0)" font-size="21" font-family="Founders Grotesk" font-style="normal" font-weight="400" aria-label="SCROLL TO EXPLORE"><g stroke-linecap="butt" stroke-linejoin="round" stroke-miterlimit="4" transform="matrix(1,0,0,1,-99.05699920654297,0)" opacity="1" style="display: inherit;"><g><g transform="matrix(1,0,0,1,0,0)" opacity="1" style="display: block;"><path d=" M0.47,-4.76 C0.47,-3.17 0.99,-1.92 2.07,-1.06 C3.15,-0.19 4.5,0.25 6.13,0.25 C7.55,0.25 8.73,-0.08 9.69,-0.76 C10.64,-1.44 11.12,-2.39 11.12,-3.62 C11.12,-5.73 9.9,-6.83 7.47,-7.28 C7.47,-7.28 5.05,-7.74 5.05,-7.74 C3.53,-8.02 2.64,-8.48 2.64,-9.77 C2.64,-11.23 3.72,-12.16 5.65,-12.16 C7.85,-12.16 9.18,-10.91 9.24,-8.71 C9.24,-8.71 10.91,-8.8 10.91,-8.8 C10.89,-11.78 8.95,-13.58 5.63,-13.58 C4.17,-13.58 3.02,-13.22 2.16,-12.48 C1.29,-11.76 0.87,-10.83 0.87,-9.67 C0.87,-7.61 2.24,-6.51 4.19,-6.15 C4.19,-6.15 6.83,-5.65 6.83,-5.65 C8.54,-5.31 9.37,-4.69 9.37,-3.49 C9.37,-2.05 8.1,-1.18 6.13,-1.18 C3.91,-1.18 2.22,-2.43 2.11,-4.86 C2.11,-4.86 0.47,-4.76 0.47,-4.76z"></path><g opacity="1" transform="matrix(0.20999999344348907,0,0,0.20999999344348907,0,0)"></g></g></g></g><g stroke-linecap="butt" stroke-linejoin="round" stroke-miterlimit="4" transform="matrix(1,0,0,1,-87.06600189208984,0)" opacity="1" style="display: inherit;"><g><g transform="matrix(1,0,0,1,0,0)" opacity="1" style="display: block;"><path d=" M0.68,-6.66 C0.68,-4.61 1.31,-2.96 2.56,-1.67 C3.83,-0.38 5.37,0.25 7.21,0.25 C9.09,0.25 10.57,-0.27 11.63,-1.35 C12.71,-2.43 13.3,-3.81 13.43,-5.52 C13.43,-5.52 11.65,-5.6 11.65,-5.6 C11.59,-4.38 11.17,-3.36 10.41,-2.54 C9.64,-1.71 8.59,-1.31 7.21,-1.31 C5.86,-1.31 4.74,-1.8 3.87,-2.75 C3,-3.72 2.56,-5.03 2.56,-6.66 C2.56,-8.29 3,-9.6 3.87,-10.55 C4.74,-11.53 5.86,-12.01 7.21,-12.01 C8.59,-12.01 9.64,-11.61 10.41,-10.79 C11.17,-9.96 11.59,-8.95 11.65,-7.72 C11.65,-7.72 13.43,-7.8 13.43,-7.8 C13.3,-9.52 12.71,-10.89 11.63,-11.97 C10.57,-13.05 9.09,-13.58 7.21,-13.58 C5.37,-13.58 3.83,-12.94 2.56,-11.65 C1.31,-10.36 0.68,-8.71 0.68,-6.66z"></path><g opacity="1" transform="matrix(0.20999999344348907,0,0,0.20999999344348907,0,0)"></g></g></g></g><g stroke-linecap="butt" stroke-linejoin="round" stroke-miterlimit="4" transform="matrix(1,0,0,1,-72.87000274658203,0)" opacity="1" style="display: inherit;"><g><g transform="matrix(1,0,0,1,0,0)" opacity="1" style="display: block;"><path d=" M11.91,0 C11.46,-0.49 11.4,-1.25 11.23,-3.19 C11.12,-4.74 10.3,-5.75 8.69,-6.07 C9.5,-6.18 10.19,-6.49 10.81,-7.04 C11.42,-7.59 11.72,-8.37 11.72,-9.39 C11.72,-11.76 10.07,-13.32 6.7,-13.32 C6.7,-13.32 1.29,-13.32 1.29,-13.32 C1.29,-13.32 1.29,0 1.29,0 C1.29,0 3.09,0 3.09,0 C3.09,0 3.09,-5.37 3.09,-5.37 C3.09,-5.37 6.85,-5.37 6.85,-5.37 C8.65,-5.37 9.37,-4.36 9.45,-2.9 C9.56,-1.35 9.75,-0.36 10,0 C10,0 11.91,0 11.91,0z M3.09,-6.83 C3.09,-6.83 3.09,-11.82 3.09,-11.82 C3.09,-11.82 6.6,-11.82 6.6,-11.82 C8.86,-11.82 9.88,-10.85 9.88,-9.33 C9.88,-7.7 8.86,-6.83 6.6,-6.83 C6.6,-6.83 3.09,-6.83 3.09,-6.83z"></path><g opacity="1" transform="matrix(0.20999999344348907,0,0,0.20999999344348907,0,0)"></g></g></g></g><g stroke-linecap="butt" stroke-linejoin="round" stroke-miterlimit="4" transform="matrix(1,0,0,1,-60.080997467041016,0)" opacity="1" style="display: inherit;"><g><g transform="matrix(1,0,0,1,0,0)" opacity="1" style="display: block;"><path d=" M12.01,-6.66 C12.01,-5.03 11.59,-3.74 10.72,-2.77 C9.86,-1.8 8.71,-1.31 7.3,-1.31 C5.88,-1.31 4.72,-1.8 3.85,-2.77 C2.98,-3.74 2.56,-5.03 2.56,-6.66 C2.56,-8.29 2.98,-9.58 3.85,-10.55 C4.72,-11.53 5.88,-12.01 7.3,-12.01 C8.71,-12.01 9.86,-11.53 10.72,-10.55 C11.59,-9.58 12.01,-8.29 12.01,-6.66z M13.92,-6.66 C13.92,-8.71 13.3,-10.36 12.05,-11.65 C10.81,-12.94 9.22,-13.58 7.3,-13.58 C5.37,-13.58 3.79,-12.94 2.54,-11.65 C1.29,-10.36 0.68,-8.71 0.68,-6.66 C0.68,-4.61 1.29,-2.96 2.54,-1.67 C3.79,-0.38 5.37,0.25 7.3,0.25 C9.22,0.25 10.81,-0.38 12.05,-1.67 C13.3,-2.96 13.92,-4.61 13.92,-6.66z"></path><g opacity="1" transform="matrix(0.20999999344348907,0,0,0.20999999344348907,0,0)"></g></g></g></g><g stroke-linecap="butt" stroke-linejoin="round" stroke-miterlimit="4" transform="matrix(1,0,0,1,-45.402000427246094,0)" opacity="1" style="display: inherit;"><g><g transform="matrix(1,0,0,1,0,0)" opacity="1" style="display: block;"><path d=" M1.29,-13.32 C1.29,-13.32 1.29,0 1.29,0 C1.29,0 10.55,0 10.55,0 C10.55,0 10.55,-1.52 10.55,-1.52 C10.55,-1.52 3.13,-1.52 3.13,-1.52 C3.13,-1.52 3.13,-13.32 3.13,-13.32 C3.13,-13.32 1.29,-13.32 1.29,-13.32z"></path><g opacity="1" transform="matrix(0.20999999344348907,0,0,0.20999999344348907,0,0)"></g></g></g></g><g stroke-linecap="butt" stroke-linejoin="round" stroke-miterlimit="4" transform="matrix(1,0,0,1,-34.1879997253418,0)" opacity="1" style="display: inherit;"><g><g transform="matrix(1,0,0,1,0,0)" opacity="1" style="display: block;"><path d=" M1.29,-13.32 C1.29,-13.32 1.29,0 1.29,0 C1.29,0 10.55,0 10.55,0 C10.55,0 10.55,-1.52 10.55,-1.52 C10.55,-1.52 3.13,-1.52 3.13,-1.52 C3.13,-1.52 3.13,-13.32 3.13,-13.32 C3.13,-13.32 1.29,-13.32 1.29,-13.32z"></path><g opacity="1" transform="matrix(0.20999999344348907,0,0,0.20999999344348907,0,0)"></g></g></g></g><g stroke-linecap="butt" stroke-linejoin="round" stroke-miterlimit="4" transform="matrix(1,0,0,1,-22.9739990234375,0)" opacity="1" style="display: inherit;"><g><g style="display: none;"></g></g></g><g stroke-linecap="butt" stroke-linejoin="round" stroke-miterlimit="4" transform="matrix(1,0,0,1,-18.98400115966797,0)" opacity="1" style="display: inherit;"><g><g transform="matrix(1,0,0,1,0,0)" opacity="1" style="display: block;"><path d=" M7.11,0 C7.11,0 7.11,-11.8 7.11,-11.8 C7.11,-11.8 12.03,-11.8 12.03,-11.8 C12.03,-11.8 12.03,-13.32 12.03,-13.32 C12.03,-13.32 0.44,-13.32 0.44,-13.32 C0.44,-13.32 0.44,-11.8 0.44,-11.8 C0.44,-11.8 5.29,-11.8 5.29,-11.8 C5.29,-11.8 5.29,0 5.29,0 C5.29,0 7.11,0 7.11,0z"></path><g opacity="1" transform="matrix(0.20999999344348907,0,0,0.20999999344348907,0,0)"></g></g></g></g><g stroke-linecap="butt" stroke-linejoin="round" stroke-miterlimit="4" transform="matrix(1,0,0,1,-6.384000778198242,0)" opacity="1" style="display: inherit;"><g><g transform="matrix(1,0,0,1,0,0)" opacity="1" style="display: block;"><path d=" M12.01,-6.66 C12.01,-5.03 11.59,-3.74 10.72,-2.77 C9.86,-1.8 8.71,-1.31 7.3,-1.31 C5.88,-1.31 4.72,-1.8 3.85,-2.77 C2.98,-3.74 2.56,-5.03 2.56,-6.66 C2.56,-8.29 2.98,-9.58 3.85,-10.55 C4.72,-11.53 5.88,-12.01 7.3,-12.01 C8.71,-12.01 9.86,-11.53 10.72,-10.55 C11.59,-9.58 12.01,-8.29 12.01,-6.66z M13.92,-6.66 C13.92,-8.71 13.3,-10.36 12.05,-11.65 C10.81,-12.94 9.22,-13.58 7.3,-13.58 C5.37,-13.58 3.79,-12.94 2.54,-11.65 C1.29,-10.36 0.68,-8.71 0.68,-6.66 C0.68,-4.61 1.29,-2.96 2.54,-1.67 C3.79,-0.38 5.37,0.25 7.3,0.25 C9.22,0.25 10.81,-0.38 12.05,-1.67 C13.3,-2.96 13.92,-4.61 13.92,-6.66z"></path><g opacity="1" transform="matrix(0.20999999344348907,0,0,0.20999999344348907,0,0)"></g></g></g></g><g stroke-linecap="butt" stroke-linejoin="round" stroke-miterlimit="4" transform="matrix(1,0,0,1,8.294998168945312,0)" opacity="1" style="display: inherit;"><g><g style="display: none;"></g></g></g><g stroke-linecap="butt" stroke-linejoin="round" stroke-miterlimit="4" transform="matrix(1,0,0,1,12.28499698638916,0)" opacity="1" style="display: inherit;"><g><g transform="matrix(1,0,0,1,0,0)" opacity="1" style="display: block;"><path d=" M10.79,-1.52 C10.79,-1.52 3.07,-1.52 3.07,-1.52 C3.07,-1.52 3.07,-6.11 3.07,-6.11 C3.07,-6.11 9.05,-6.11 9.05,-6.11 C9.05,-6.11 9.05,-7.61 9.05,-7.61 C9.05,-7.61 3.07,-7.61 3.07,-7.61 C3.07,-7.61 3.07,-11.8 3.07,-11.8 C3.07,-11.8 10.6,-11.8 10.6,-11.8 C10.6,-11.8 10.6,-13.32 10.6,-13.32 C10.6,-13.32 1.29,-13.32 1.29,-13.32 C1.29,-13.32 1.29,0 1.29,0 C1.29,0 10.79,0 10.79,0 C10.79,0 10.79,-1.52 10.79,-1.52z"></path><g opacity="1" transform="matrix(0.20999999344348907,0,0,0.20999999344348907,0,0)"></g></g></g></g><g stroke-linecap="butt" stroke-linejoin="round" stroke-miterlimit="4" transform="matrix(1,0,0,1,24.00300407409668,0)" opacity="1" style="display: inherit;"><g><g transform="matrix(1,0,0,1,0,0)" opacity="1" style="display: block;"><path d=" M12.14,-13.32 C12.14,-13.32 10.09,-13.32 10.09,-13.32 C10.09,-13.32 6.47,-8.27 6.47,-8.27 C6.47,-8.27 2.86,-13.32 2.86,-13.32 C2.86,-13.32 0.7,-13.32 0.7,-13.32 C0.7,-13.32 5.39,-6.85 5.39,-6.85 C5.39,-6.85 0.25,0 0.25,0 C0.25,0 2.31,0 2.31,0 C2.31,0 6.34,-5.52 6.34,-5.52 C6.34,-5.52 10.45,0 10.45,0 C10.45,0 12.6,0 12.6,0 C12.6,0 7.44,-6.98 7.44,-6.98 C7.44,-6.98 12.14,-13.32 12.14,-13.32z"></path><g opacity="1" transform="matrix(0.20999999344348907,0,0,0.20999999344348907,0,0)"></g></g></g></g><g stroke-linecap="butt" stroke-linejoin="round" stroke-miterlimit="4" transform="matrix(1,0,0,1,36.98099899291992,0)" opacity="1" style="display: inherit;"><g><g transform="matrix(1,0,0,1,0,0)" opacity="1" style="display: block;"><path d=" M3.11,-6.47 C3.11,-6.47 3.11,-11.82 3.11,-11.82 C3.11,-11.82 6.09,-11.82 6.09,-11.82 C8.4,-11.82 9.54,-10.85 9.54,-9.16 C9.54,-7.44 8.4,-6.47 6.09,-6.47 C6.09,-6.47 3.11,-6.47 3.11,-6.47z M3.11,-4.97 C3.11,-4.97 6.13,-4.97 6.13,-4.97 C9.41,-4.97 11.31,-6.53 11.31,-9.16 C11.31,-11.76 9.41,-13.32 6.13,-13.32 C6.13,-13.32 1.29,-13.32 1.29,-13.32 C1.29,-13.32 1.29,0 1.29,0 C1.29,0 3.11,0 3.11,0 C3.11,0 3.11,-4.97 3.11,-4.97z"></path><g opacity="1" transform="matrix(0.20999999344348907,0,0,0.20999999344348907,0,0)"></g></g></g></g><g stroke-linecap="butt" stroke-linejoin="round" stroke-miterlimit="4" transform="matrix(1,0,0,1,48.86699676513672,0)" opacity="1" style="display: inherit;"><g><g transform="matrix(1,0,0,1,0,0)" opacity="1" style="display: block;"><path d=" M1.29,-13.32 C1.29,-13.32 1.29,0 1.29,0 C1.29,0 10.55,0 10.55,0 C10.55,0 10.55,-1.52 10.55,-1.52 C10.55,-1.52 3.13,-1.52 3.13,-1.52 C3.13,-1.52 3.13,-13.32 3.13,-13.32 C3.13,-13.32 1.29,-13.32 1.29,-13.32z"></path><g opacity="1" transform="matrix(0.20999999344348907,0,0,0.20999999344348907,0,0)"></g></g></g></g><g stroke-linecap="butt" stroke-linejoin="round" stroke-miterlimit="4" transform="matrix(1,0,0,1,60.08100509643555,0)" opacity="1" style="display: inherit;"><g><g transform="matrix(1,0,0,1,0,0)" opacity="1" style="display: block;"><path d=" M12.01,-6.66 C12.01,-5.03 11.59,-3.74 10.72,-2.77 C9.86,-1.8 8.71,-1.31 7.3,-1.31 C5.88,-1.31 4.72,-1.8 3.85,-2.77 C2.98,-3.74 2.56,-5.03 2.56,-6.66 C2.56,-8.29 2.98,-9.58 3.85,-10.55 C4.72,-11.53 5.88,-12.01 7.3,-12.01 C8.71,-12.01 9.86,-11.53 10.72,-10.55 C11.59,-9.58 12.01,-8.29 12.01,-6.66z M13.92,-6.66 C13.92,-8.71 13.3,-10.36 12.05,-11.65 C10.81,-12.94 9.22,-13.58 7.3,-13.58 C5.37,-13.58 3.79,-12.94 2.54,-11.65 C1.29,-10.36 0.68,-8.71 0.68,-6.66 C0.68,-4.61 1.29,-2.96 2.54,-1.67 C3.79,-0.38 5.37,0.25 7.3,0.25 C9.22,0.25 10.81,-0.38 12.05,-1.67 C13.3,-2.96 13.92,-4.61 13.92,-6.66z"></path><g opacity="1" transform="matrix(0.20999999344348907,0,0,0.20999999344348907,0,0)"></g></g></g></g><g stroke-linecap="butt" stroke-linejoin="round" stroke-miterlimit="4" transform="matrix(1,0,0,1,74.75999450683594,0)" opacity="1" style="display: inherit;"><g><g transform="matrix(1,0,0,1,0,0)" opacity="1" style="display: block;"><path d=" M11.91,0 C11.46,-0.49 11.4,-1.25 11.23,-3.19 C11.12,-4.74 10.3,-5.75 8.69,-6.07 C9.5,-6.18 10.19,-6.49 10.81,-7.04 C11.42,-7.59 11.72,-8.37 11.72,-9.39 C11.72,-11.76 10.07,-13.32 6.7,-13.32 C6.7,-13.32 1.29,-13.32 1.29,-13.32 C1.29,-13.32 1.29,0 1.29,0 C1.29,0 3.09,0 3.09,0 C3.09,0 3.09,-5.37 3.09,-5.37 C3.09,-5.37 6.85,-5.37 6.85,-5.37 C8.65,-5.37 9.37,-4.36 9.45,-2.9 C9.56,-1.35 9.75,-0.36 10,0 C10,0 11.91,0 11.91,0z M3.09,-6.83 C3.09,-6.83 3.09,-11.82 3.09,-11.82 C3.09,-11.82 6.6,-11.82 6.6,-11.82 C8.86,-11.82 9.88,-10.85 9.88,-9.33 C9.88,-7.7 8.86,-6.83 6.6,-6.83 C6.6,-6.83 3.09,-6.83 3.09,-6.83z"></path><g opacity="1" transform="matrix(0.20999999344348907,0,0,0.20999999344348907,0,0)"></g></g></g></g><g stroke-linecap="butt" stroke-linejoin="round" stroke-miterlimit="4" transform="matrix(1,0,0,1,87.54900360107422,0)" opacity="1" style="display: inherit;"><g><g transform="matrix(1,0,0,1,0,0)" opacity="1" style="display: block;"><path d=" M10.79,-1.52 C10.79,-1.52 3.07,-1.52 3.07,-1.52 C3.07,-1.52 3.07,-6.11 3.07,-6.11 C3.07,-6.11 9.05,-6.11 9.05,-6.11 C9.05,-6.11 9.05,-7.61 9.05,-7.61 C9.05,-7.61 3.07,-7.61 3.07,-7.61 C3.07,-7.61 3.07,-11.8 3.07,-11.8 C3.07,-11.8 10.6,-11.8 10.6,-11.8 C10.6,-11.8 10.6,-13.32 10.6,-13.32 C10.6,-13.32 1.29,-13.32 1.29,-13.32 C1.29,-13.32 1.29,0 1.29,0 C1.29,0 10.79,0 10.79,0 C10.79,0 10.79,-1.52 10.79,-1.52z"></path><g opacity="1" transform="matrix(0.20999999344348907,0,0,0.20999999344348907,0,0)"></g></g></g></g></g><g style="display: block;" transform="matrix(1,0,0,1,14.32800006866455,29.87299919128418)" opacity="1"><g opacity="1" transform="matrix(1,0,0,1,0,0)"><path stroke-linecap="butt" stroke-linejoin="miter" fill-opacity="0" stroke-miterlimit="10" stroke="rgb(0,0,0)" stroke-opacity="1" stroke-width="1.4" d=" M0,18.97100067138672 C0,18.97100067138672 0,18.97100067138672 0,18.97100067138672 C-6.840000152587891,18.97100067138672 -12.385000228881836,13.425999641418457 -12.385000228881836,6.585999965667725 C-12.385000228881836,6.585999965667725 -12.385000228881836,-6.585999965667725 -12.385000228881836,-6.585999965667725 C-12.385000228881836,-13.425999641418457 -6.840000152587891,-18.97100067138672 0,-18.97100067138672 C0,-18.97100067138672 0,-18.97100067138672 0,-18.97100067138672 C6.840000152587891,-18.97100067138672 12.385000228881836,-13.425999641418457 12.385000228881836,-6.585999965667725 C12.385000228881836,-6.585999965667725 12.385000228881836,6.585999965667725 12.385000228881836,6.585999965667725 C12.385000228881836,13.425999641418457 6.840000152587891,18.97100067138672 0,18.97100067138672z"></path></g></g><g style="display: block;" transform="matrix(1,0,0,1,14.32800006866455,34.707820892333984)" opacity="1"><g opacity="1" transform="matrix(1,0,0,1,0,0)"><path stroke-linecap="butt" stroke-linejoin="miter" fill-opacity="0" stroke-miterlimit="10" stroke="rgb(0,0,0)" stroke-opacity="1" stroke-width="1.4" d=" M0,-4.624000072479248 C0,-4.624000072479248 0,4.624000072479248 0,4.624000072479248"></path></g></g></g></svg>