<svg width="679" height="444" viewBox="0 0 679 444" fill="none" xmlns="http://www.w3.org/2000/svg">
<path fill-rule="evenodd" clip-rule="evenodd" d="M766.082 221.67C784.456 221.67 802.255 219.203 819.165 214.582C805.72 211.747 791.781 210.256 777.496 210.256H540.069C500.853 210.256 464.258 199.019 433.336 179.59C440.095 140.02 458.747 102.086 489.295 71.5399L641.042 -80.2049C654.036 -93.1985 664.874 -107.529 673.567 -122.753C662.052 -115.252 651.141 -106.45 641.042 -96.3478L473.152 71.5399C445.423 99.2695 411.602 117.198 376 125.327C352.797 92.5658 339.165 52.552 339.165 9.35394V-205.245C339.165 -223.621 336.698 -241.42 332.077 -258.33C329.242 -244.887 327.751 -230.948 327.751 -216.66V20.7688C327.751 59.9843 316.514 96.5762 297.086 127.5C257.516 120.739 219.581 102.085 189.035 71.5394L37.2902 -80.2049C24.2966 -93.1985 9.96616 -104.04 -5.258 -112.73C2.24297 -101.219 11.0447 -90.3075 21.1473 -80.2049L189.035 87.6827C216.765 115.413 234.694 149.232 242.822 184.836C210.061 208.036 170.047 221.67 126.849 221.67H-87.7503C-106.126 221.67 -123.925 224.137 -140.835 228.76C-127.391 231.592 -113.452 233.084 -99.1651 233.084H138.264C177.48 233.084 214.071 244.321 244.995 263.752C238.234 303.318 219.581 341.252 189.035 371.799L37.2902 523.547C24.2971 536.54 13.4553 550.868 4.76584 566.094C16.2767 558.592 27.1876 549.788 37.2902 539.689L205.178 371.799C232.907 344.07 266.727 326.142 302.331 318.011C325.531 350.776 339.165 390.788 339.165 433.988V648.587C339.165 666.961 341.632 684.76 346.255 701.67C349.087 688.225 350.579 674.286 350.579 660.001V422.569C350.579 383.353 361.816 346.763 381.247 315.841C420.813 322.6 458.747 341.252 489.295 371.799L641.042 523.547C654.036 536.54 668.364 547.379 683.589 556.072C676.087 544.556 667.283 533.646 657.184 523.547L489.295 355.657C461.565 327.928 443.637 294.107 435.511 258.505C468.271 235.302 508.283 221.67 551.483 221.67H766.082Z" fill="url(#paint0_linear_3224_866)"/>
<defs>
<linearGradient id="paint0_linear_3224_866" x1="339.165" y1="-258.33" x2="339.165" y2="701.67" gradientUnits="userSpaceOnUse">
<stop stop-color="#F4F4F4"/>
<stop offset="1" stop-color="#F8FBFE"/>
</linearGradient>
</defs>
</svg>
