<svg xmlns="http://www.w3.org/2000/svg" width="24" height="11" viewBox="0 0 24 11" fill="none">
  <path d="M0.749409 5.50019C0.749409 5.6991 0.828426 5.88987 0.969078 6.03052C1.10973 6.17117 1.3005 6.25019 1.49941 6.25019H20.6869L17.4669 9.46956C17.326 9.61046 17.2469 9.80155 17.2469 10.0008C17.2469 10.2001 17.326 10.3912 17.4669 10.5321C17.6078 10.673 17.7989 10.7521 17.9982 10.7521C18.1974 10.7521 18.3885 10.673 18.5294 10.5321L23.0294 6.03206C23.0993 5.96238 23.1548 5.87959 23.1927 5.78843C23.2305 5.69726 23.25 5.59952 23.25 5.50081C23.25 5.4021 23.2305 5.30436 23.1927 5.2132C23.1548 5.12204 23.0993 5.03924 23.0294 4.96956L18.5294 0.469563C18.4596 0.399798 18.3768 0.344457 18.2857 0.306701C18.1945 0.268945 18.0968 0.249512 17.9982 0.249512C17.8995 0.249512 17.8018 0.268945 17.7106 0.306701C17.6195 0.344457 17.5367 0.399798 17.4669 0.469563C17.3971 0.539327 17.3418 0.62215 17.304 0.713302C17.2663 0.804454 17.2469 0.90215 17.2469 1.00081C17.2469 1.09947 17.2663 1.19717 17.304 1.28832C17.3418 1.37948 17.3971 1.4623 17.4669 1.53206L20.6869 4.75019C20.6869 4.75019 1.69832 4.75019 1.49941 4.75019C1.3005 4.75019 1.10973 4.82921 0.969078 4.96986C0.828426 5.11051 0.749409 5.30128 0.749409 5.50019Z" fill="#F4F4F4"/>
</svg>